<svg id="Layer_1" data-name="Layer 1" xmlns="http://www.w3.org/2000/svg" xmlns:xlink="http://www.w3.org/1999/xlink" viewBox="0 0 566.93 566.93"><defs><style>.cls-1{fill:url(#linear-gradient);}.cls-2{fill:url(#linear-gradient-2);}.cls-3,.cls-4,.cls-7{fill:#0e466c;}.cls-4,.cls-7{font-size:50.34px;stroke:#0e466c;stroke-miterlimit:10;font-family:SVN-Magnificent-Regular, SVN-Magnificent;}.cls-4{stroke-width:0.35px;letter-spacing:-0.1em;}.cls-5{letter-spacing:-0.06em;}.cls-6{letter-spacing:0em;}.cls-7{stroke-width:0.44px;}</style><linearGradient id="linear-gradient" x1="136.24" y1="427.77" x2="136.24" y2="116.9" gradientUnits="userSpaceOnUse"><stop offset="0" stop-color="#ab975b"/><stop offset="0.04" stop-color="#b8a463"/><stop offset="0.12" stop-color="#ceb970"/><stop offset="0.22" stop-color="#dfc97a"/><stop offset="0.35" stop-color="#ead581"/><stop offset="0.52" stop-color="#f1db85"/><stop offset="1" stop-color="#f3dd86"/></linearGradient><linearGradient id="linear-gradient-2" x1="173.45" y1="287.01" x2="371.94" y2="287.01" gradientUnits="userSpaceOnUse"><stop offset="0" stop-color="#014970"/><stop offset="0.49" stop-color="#02445f"/><stop offset="1" stop-color="#034051"/></linearGradient></defs><polygon class="cls-1" points="173.46 116.9 99.02 311.01 173.46 427.77 173.46 338.59 173.46 116.9"/><path class="cls-2" d="M230.84,267.18,173.45,346v81.73l63.67-100.71,22.44,51.09,112.38-231.9L265.4,312.47,242.09,268A6.64,6.64,0,0,0,230.84,267.18Z"/><path class="cls-3" d="M459.13,139.06a198.89,198.89,0,0,0-277-4.17v39.53a172.76,172.76,0,0,1,136.34-67c95,0,172.33,77.31,172.33,172.33S413.51,452,318.48,452a171.63,171.63,0,0,1-115-44.12L189,430.71a198.9,198.9,0,0,0,270.1-291.65Z"/><text class="cls-4" transform="translate(284.08 364.63)">A<tspan class="cls-5" x="27.44" y="0">T</tspan><tspan class="cls-6" x="48.88" y="0">CHER</tspan></text><text class="cls-7" transform="translate(49.54 162.61)">THE </text></svg>